<svg xmlns="http://www.w3.org/2000/svg" viewBox="0 0 100 100" width="100" height="100">
  <rect width="100" height="100" rx="18" fill="#0e1a31"/>
  <g fill="#d6ab49" transform="translate(0,10)">
    <path fill-rule="evenodd" clip-rule="evenodd" d="M50 2 L98 27 L2 27 Z M50 9 L86 27 L14 27 Z"/>
    <path d="M50 13 L78 27 L22 27 Z"/>
    <rect x="2" y="29" width="96" height="3"/>
    <rect x="5" y="33.5" width="90" height="1.8"/>
    <rect x="2" y="37" width="96" height="3"/>
    <rect x="11" y="41" width="6" height="22"/>
    <rect x="25" y="41" width="6" height="22"/>
    <rect x="39" y="41" width="6" height="22"/>
    <rect x="53" y="41" width="6" height="22"/>
    <rect x="67" y="41" width="6" height="22"/>
    <rect x="81" y="41" width="6" height="22"/>
    <rect x="5" y="65" width="90" height="3"/>
    <rect x="2" y="70" width="96" height="3"/>
    <rect x="0" y="75" width="100" height="5"/>
  </g>
</svg>
